HIERARCHY
ROOT Hips
{
    OFFSET 0.000000 0.000000 0.000000
    CHANNELS 6 Xposition Yposition Zposition Zrotation Xrotation Yrotation
    JOINT Spine
    {
        OFFSET -0.000000 7.305680 0.000000
        CHANNELS 3 Zrotation Xrotation Yrotation
        JOINT Spine1
        {
            OFFSET -0.000000 20.356600 0.000000
            CHANNELS 3 Zrotation Xrotation Yrotation
            JOINT Neck
            {
                OFFSET -0.000000 22.138500 0.000000
                CHANNELS 3 Zrotation Xrotation Yrotation
                JOINT Head
                {
                    OFFSET -0.000000 13.809501 1.781870
                    CHANNELS 3 Zrotation Xrotation Yrotation
                    End Site
                    {
                        OFFSET -0.000000 17.818779 0.000000
                    }
                }
            }
            JOINT LeftShoulder
            {
                OFFSET 3.599130 17.990000 0.023591
                CHANNELS 3 Zrotation Xrotation Yrotation
                JOINT LeftArm
                {
                    OFFSET 12.560999 0.000000 0.000000
                    CHANNELS 3 Zrotation Xrotation Yrotation
                    JOINT LeftForeArm
                    {
                        OFFSET 22.903299 0.000000 0.000000
                        CHANNELS 3 Zrotation Xrotation Yrotation
                        JOINT LeftHand
                        {
                            OFFSET 21.865299 0.000000 0.000000
                            CHANNELS 3 Zrotation Xrotation Yrotation
                            JOINT LeftHandThumb1
                            {
                                OFFSET 1.853710 -2.106480 2.949080
                                CHANNELS 3 Zrotation Xrotation Yrotation
                                JOINT LeftHandThumb2
                                {
                                    OFFSET 2.049150 0.000000 1.336400
                                    CHANNELS 3 Zrotation Xrotation Yrotation
                                    JOINT LeftHandThumb3
                                    {
                                        OFFSET 2.672810 0.000000 0.000000
                                        CHANNELS 3 Zrotation Xrotation Yrotation
                                        End Site
                                        {
                                            OFFSET 2.381310 0.000000 0.000000
                                        }
                                    }
                                }
                            }
                            JOINT LeftHandIndex1
                            {
                                OFFSET 7.583340 0.000000 2.949080
                                CHANNELS 3 Zrotation Xrotation Yrotation
                                JOINT LeftHandIndex2
                                {
                                    OFFSET 4.454680 0.000000 0.000000
                                    CHANNELS 3 Zrotation Xrotation Yrotation
                                    JOINT LeftHandIndex3
                                    {
                                        OFFSET 2.227340 0.000000 0.000000
                                        CHANNELS 3 Zrotation Xrotation Yrotation
                                        End Site
                                        {
                                            OFFSET 1.984424 0.000000 0.000000
                                        }
                                    }
                                }
                            }
                            JOINT LeftHandMiddle1
                            {
                                OFFSET 7.583340 0.000000 0.977409
                                CHANNELS 3 Zrotation Xrotation Yrotation
                                JOINT LeftHandMiddle2
                                {
                                    OFFSET 4.900150 0.000000 0.000000
                                    CHANNELS 3 Zrotation Xrotation Yrotation
                                    JOINT LeftHandMiddle3
                                    {
                                        OFFSET 2.672810 0.000000 0.000000
                                        CHANNELS 3 Zrotation Xrotation Yrotation
                                        End Site
                                        {
                                            OFFSET 2.381310 0.000000 0.000000
                                        }
                                    }
                                }
                            }
                            JOINT LeftHandRing1
                            {
                                OFFSET 7.162050 0.000000 -0.977409
                                CHANNELS 3 Zrotation Xrotation Yrotation
                                JOINT LeftHandRing2
                                {
                                    OFFSET 4.454680 0.000000 0.000000
                                    CHANNELS 3 Zrotation Xrotation Yrotation
                                    JOINT LeftHandRing3
                                    {
                                        OFFSET 2.227340 0.000000 0.000000
                                        CHANNELS 3 Zrotation Xrotation Yrotation
                                        End Site
                                        {
                                            OFFSET 1.984424 0.000000 0.000000
                                        }
                                    }
                                }
                            }
                            JOINT LeftHandPinky1
                            {
                                OFFSET 6.740750 0.000000 -2.949080
                                CHANNELS 3 Zrotation Xrotation Yrotation
                                JOINT LeftHandPinky2
                                {
                                    OFFSET 3.563750 0.000000 0.000000
                                    CHANNELS 3 Zrotation Xrotation Yrotation
                                    JOINT LeftHandPinky3
                                    {
                                        OFFSET 1.781870 0.000000 0.000000
                                        CHANNELS 3 Zrotation Xrotation Yrotation
                                        End Site
                                        {
                                            OFFSET 1.587538 0.000000 0.000000
                                        }
                                    }
                                }
                            }
                        }
                    }
                }
            }
            JOINT RightShoulder
            {
                OFFSET -3.506990 17.990000 0.023591
                CHANNELS 3 Zrotation Xrotation Yrotation
                JOINT RightArm
                {
                    OFFSET -12.560999 0.000000 0.000000
                    CHANNELS 3 Zrotation Xrotation Yrotation
                    JOINT RightForeArm
                    {
                        OFFSET -22.903299 0.000000 0.000000
                        CHANNELS 3 Zrotation Xrotation Yrotation
                        JOINT RightHand
                        {
                            OFFSET -21.865299 0.000000 0.000000
                            CHANNELS 3 Zrotation Xrotation Yrotation
                            JOINT RightHandThumb1
                            {
                                OFFSET -1.853710 -2.106480 2.949080
                                CHANNELS 3 Zrotation Xrotation Yrotation
                                JOINT RightHandThumb2
                                {
                                    OFFSET -2.049150 0.000000 1.336400
                                    CHANNELS 3 Zrotation Xrotation Yrotation
                                    JOINT RightHandThumb3
                                    {
                                        OFFSET -2.672810 0.000000 0.000000
                                        CHANNELS 3 Zrotation Xrotation Yrotation
                                        End Site
                                        {
                                            OFFSET -2.381310 0.000000 0.000000
                                        }
                                    }
                                }
                            }
                            JOINT RightHandIndex1
                            {
                                OFFSET -7.583340 0.000000 2.949080
                                CHANNELS 3 Zrotation Xrotation Yrotation
                                JOINT RightHandIndex2
                                {
                                    OFFSET -4.454680 0.000000 0.000000
                                    CHANNELS 3 Zrotation Xrotation Yrotation
                                    JOINT RightHandIndex3
                                    {
                                        OFFSET -2.227340 0.000000 0.000000
                                        CHANNELS 3 Zrotation Xrotation Yrotation
                                        End Site
                                        {
                                            OFFSET -1.984424 0.000000 0.000000
                                        }
                                    }
                                }
                            }
                            JOINT RightHandMiddle1
                            {
                                OFFSET -7.583340 0.000000 0.977409
                                CHANNELS 3 Zrotation Xrotation Yrotation
                                JOINT RightHandMiddle2
                                {
                                    OFFSET -4.900150 0.000000 0.000000
                                    CHANNELS 3 Zrotation Xrotation Yrotation
                                    JOINT RightHandMiddle3
                                    {
                                        OFFSET -2.672810 0.000000 0.000000
                                        CHANNELS 3 Zrotation Xrotation Yrotation
                                        End Site
                                        {
                                            OFFSET -2.381310 0.000000 0.000000
                                        }
                                    }
                                }
                            }
                            JOINT RightHandRing1
                            {
                                OFFSET -7.162050 0.000000 -0.977409
                                CHANNELS 3 Zrotation Xrotation Yrotation
                                JOINT RightHandRing2
                                {
                                    OFFSET -4.454680 0.000000 0.000000
                                    CHANNELS 3 Zrotation Xrotation Yrotation
                                    JOINT RightHandRing3
                                    {
                                        OFFSET -2.227340 0.000000 0.000000
                                        CHANNELS 3 Zrotation Xrotation Yrotation
                                        End Site
                                        {
                                            OFFSET -1.984424 0.000000 0.000000
                                        }
                                    }
                                }
                            }
                            JOINT RightHandPinky1
                            {
                                OFFSET -6.740750 0.000000 -2.949080
                                CHANNELS 3 Zrotation Xrotation Yrotation
                                JOINT RightHandPinky2
                                {
                                    OFFSET -3.563750 0.000000 0.000000
                                    CHANNELS 3 Zrotation Xrotation Yrotation
                                    JOINT RightHandPinky3
                                    {
                                        OFFSET -1.781870 0.000000 0.000000
                                        CHANNELS 3 Zrotation Xrotation Yrotation
                                        End Site
                                        {
                                            OFFSET -1.587538 0.000000 0.000000
                                        }
                                    }
                                }
                            }
                        }
                    }
                }
            }
        }
    }
    JOINT LeftUpLeg
    {
        OFFSET 8.909360 0.000000 0.000000
        CHANNELS 3 Zrotation Xrotation Yrotation
        JOINT LeftLeg
        {
            OFFSET -0.000000 -38.765602 0.000000
            CHANNELS 3 Zrotation Xrotation Yrotation
            JOINT LeftFoot
            {
                OFFSET -0.000000 -35.245003 0.000000
                CHANNELS 3 Zrotation Xrotation Yrotation
                JOINT LeftToeBase
                {
                    OFFSET -0.000000 -5.791090 13.364000
                    CHANNELS 3 Zrotation Xrotation Yrotation
                    End Site
                    {
                        OFFSET -0.000000 0.000000 3.563756
                    }
                }
            }
        }
    }
    JOINT RightUpLeg
    {
        OFFSET -8.909360 0.000000 0.000000
        CHANNELS 3 Zrotation Xrotation Yrotation
        JOINT RightLeg
        {
            OFFSET -0.000000 -38.765602 0.000000
            CHANNELS 3 Zrotation Xrotation Yrotation
            JOINT RightFoot
            {
                OFFSET -0.000000 -35.245003 0.000000
                CHANNELS 3 Zrotation Xrotation Yrotation
                JOINT RightToeBase
                {
                    OFFSET -0.000000 -5.791090 13.364000
                    CHANNELS 3 Zrotation Xrotation Yrotation
                    End Site
                    {
                        OFFSET -0.000000 0.000000 3.563756
                    }
                }
            }
        }
    }
}
MOTION
Frames:    4
Frame Time:    0.033333
-2.231224    81.042740    122.616516    -0.228765    1.103409    3.120811    -1.291626    -1.823603    -0.659171    1.043532    4.971531    -0.258330    2.472719    -5.285516    2.836581    2.343793    -8.795501    3.022084    2.916587    11.073593    -1.505796    -64.356041    28.197412    11.778436    22.841816    -21.337498    -113.587326    -41.846558    -35.392033    -14.767191    -10.430556    9.151786    -1.535913    -0.000000    0.000000    1.867824    -0.000000    0.000000    3.735649    -36.401680    22.804586    -27.730053    -84.202553    0.000000    0.000000    -42.101276    0.000000    0.000000    -57.457439    5.257611    -11.964161    -92.715714    0.000000    0.000000    -54.607861    0.000000    0.000000    -73.750702    -16.216833    -3.013210    -101.228874    0.000000    0.000000    -67.114433    0.000000    0.000000    -89.999992    -39.999996    0.000000    -110.000000    0.000000    0.000000    -80.000000    0.000000    0.000000    -5.869246    7.720473    -3.313623    75.577057    50.104691    -16.465212    -35.982613    -35.602203    86.936852    60.010929    -28.953363    42.133640    3.670918    0.303127    1.982446    0.000000    0.000000    0.000000    0.000000    0.000000    0.000000    14.631200    0.023965    0.091796    29.262440    0.000000    -0.000000    14.631220    0.000000    -0.000000    27.860952    -0.776483    -0.850258    55.741264    0.000000    -0.000000    27.870638    0.000000    -0.000000    41.080570    -1.771210    -1.584374    82.220100    0.000000    -0.000000    41.110043    0.000000    -0.000000    54.697140    -2.943413    -2.082439    109.501305    0.000000    -0.000000    54.750652    0.000000    -0.000000    4.317158    3.753372    1.301313    2.617531    -6.918883    23.009466    -7.611067    5.813058    -22.049046    0.301039    -3.385625    -1.236121    -5.849688    3.419144    3.490180    -1.513844    -2.836444    -15.395326    9.404517    -1.296380    9.049873    -0.297844    -1.255305    0.344533    
-2.242581    81.029907    122.611511    -0.268369    0.866763    2.922746    -1.108303    -1.673042    -0.483506    0.777566    5.173111    -0.191277    2.526193    -5.612638    2.974695    2.459398    -9.238709    3.165660    3.045645    10.932019    -2.043303    -64.553123    28.065355    12.380698    21.669504    -21.216637    -113.755821    -40.121433    -35.312447    -13.170228    -11.334617    9.599386    -2.173428    -0.000000    0.000000    1.135674    -0.000000    0.000000    2.271348    -36.044037    24.001568    -29.203247    -84.766594    0.000000    0.000000    -42.383297    0.000000    0.000000    -57.567989    6.242130    -12.719256    -93.093605    0.000000    0.000000    -54.796799    0.000000    0.000000    -73.926338    -15.669166    -3.359859    -101.420639    0.000000    0.000000    -67.210320    0.000000    0.000000    -89.999992    -39.999996    0.000000    -110.000000    0.000000    0.000000    -80.000000    0.000000    0.000000    -5.996850    7.099224    -2.562480    76.311653    51.818153    -17.654198    -34.129494    -36.056618    87.926865    58.762520    -30.060925    41.192951    2.588304    -0.214359    2.082329    0.000000    0.000000    0.000000    0.000000    0.000000    0.000000    14.369574    0.075900    0.296260    28.739540    0.000000    -0.000000    14.369771    0.000000    -0.000000    27.631025    -0.574483    -0.550159    55.272610    0.000000    -0.000000    27.636307    0.000000    -0.000000    40.884521    -1.401637    -1.224964    81.805702    0.000000    -0.000000    40.902855    0.000000    -0.000000    54.535839    -2.392054    -1.702982    109.142799    0.000000    -0.000000    54.571400    0.000000    -0.000000    4.382705    3.977499    1.379816    2.599952    -6.821822    23.115049    -7.626611    5.748297    -22.062307    0.302751    -3.389458    -1.241242    -5.806299    3.556551    3.463991    -1.489724    -2.745228    -15.231494    9.399969    -1.306523    9.134458    -0.298352    -1.252430    0.345628    
-2.257006    81.021988    122.591995    -0.298899    0.716905    2.741285    -0.980009    -1.480113    -0.245117    0.592628    5.151191    -0.104817    2.489544    -5.832368    3.066611    2.599840    -9.578289    3.253722    3.199745    10.697358    -2.512187    -64.447205    27.865662    12.807734    20.998171    -21.455782    -114.337021    -39.931767    -35.482037    -11.980191    -11.954063    10.054946    -2.373362    -0.000000    0.000000    0.943348    -0.000000    0.000000    1.886696    -35.801620    23.065075    -28.509878    -83.473282    0.000000    0.000000    -41.736641    0.000000    0.000000    -57.189713    5.556174    -12.371343    -92.227104    0.000000    0.000000    -54.363556    0.000000    0.000000    -73.660744    -16.030739    -3.181883    -100.980919    0.000000    0.000000    -66.990463    0.000000    0.000000    -89.999992    -39.999996    0.000000    -110.000000    0.000000    0.000000    -80.000000    0.000000    0.000000    -6.098644    6.652481    -2.033474    76.463257    53.025143    -18.324072    -32.555717    -36.376846    89.273811    58.634815    -31.182329    40.730125    3.176794    0.280403    1.673839    0.000000    0.000000    0.000000    0.000000    0.000000    0.000000    13.648024    0.022867    0.094177    27.296085    0.000000    -0.000000    13.648044    0.000000    -0.000000    27.106419    -0.526700    -0.575649    54.221954    0.000000    -0.000000    27.110975    0.000000    -0.000000    40.559784    -1.217046    -1.099262    81.147812    0.000000    -0.000000    40.573906    0.000000    -0.000000    54.418945    -2.035441    -1.455595    108.889610    0.000000    -0.000000    54.444805    0.000000    -0.000000    4.413600    4.158019    1.443174    2.625980    -6.842871    23.209072    -7.640421    5.755616    -22.044033    0.303332    -3.392966    -1.243326    -5.770699    3.617399    3.392101    -1.474020    -2.687540    -15.066320    9.400635    -1.288283    9.233339    -0.299446    -1.251342    0.347477    
-2.272407    81.022293    122.562706    -0.305701    0.665469    2.620859    -0.944025    -1.316278    -0.014038    0.534523    4.980574    -0.013706    2.361366    -5.912044    3.119699    2.677437    -9.799166    3.298196    3.422036    10.437772    -2.892873    -64.103752    27.889494    12.958615    20.876919    -22.182274    -115.287033    -40.588902    -35.762951    -10.770293    -12.260521    10.580551    -1.968125    -0.000000    0.000000    1.551976    -0.000000    0.000000    3.103952    -35.697433    21.108637    -26.621485    -81.490936    0.000000    0.000000    -40.745472    0.000000    0.000000    -56.631775    4.046118    -11.386807    -90.898926    0.000000    0.000000    -53.699467    0.000000    0.000000    -73.206177    -16.850567    -2.703538    -100.306915    0.000000    0.000000    -66.653458    0.000000    0.000000    -89.999992    -39.999996    0.000000    -110.000000    0.000000    0.000000    -80.000000    0.000000    0.000000    -6.254150    6.304242    -1.681589    76.191917    53.839272    -18.600931    -31.262058    -36.620258    90.947075    58.884583    -32.329834    40.287697    4.286350    1.200832    0.884484    0.000000    0.000000    -1.005846    0.000000    0.000000    -2.011692    12.693563    0.000000    -0.000000    25.387127    0.000000    -0.000000    12.693563    0.000000    -0.000000    26.461958    -0.518062    -0.607734    52.932976    0.000000    -0.000000    26.466482    0.000000    -0.000000    40.226234    -1.165859    -1.074776    80.478813    0.000000    -0.000000    40.239410    0.000000    -0.000000    54.406437    -1.929597    -1.380599    108.859383    0.000000    -0.000000    54.429691    0.000000    -0.000000    4.416780    4.220418    1.465145    2.654904    -6.859914    23.339911    -7.649159    5.778641    -22.073835    0.303721    -3.397379    -1.245044    -5.757042    3.632408    3.317429    -1.471636    -2.719349    -14.989434    9.399404    -1.223659    9.344604    -0.300017    -1.251097    0.348408    
